<svg width="41" height="40" xmlns="http://www.w3.org/2000/svg"><path d="M30.5 29.981h-4.144v-6.485c0-1.546-.027-3.535-2.154-3.535-2.156 0-2.485 1.685-2.485 3.425v6.595h-4.14V16.646h3.973v1.824h.057c.553-1.049 1.905-2.155 3.922-2.155 4.196 0 4.97 2.761 4.97 6.353v7.313zM12.905 14.825a2.403 2.403 0 11-.004-4.807 2.403 2.403 0 01.004 4.807zm2.072 15.156H10.83V16.646h4.148v13.335zM20.5 0C9.454 0 .5 8.954.5 20c0 11.045 8.954 20 20 20s20-8.955 20-20c0-11.046-8.954-20-20-20z" fill="#FFF" fill-rule="evenodd"/></svg>