<svg width="41" height="40" xmlns="http://www.w3.org/2000/svg"><path d="M28.453 15.921c.007.177.012.353.012.532 0 5.42-4.127 11.673-11.675 11.673-2.317 0-4.474-.679-6.29-1.842.321.037.648.056.979.056a8.23 8.23 0 005.096-1.756 4.107 4.107 0 01-3.834-2.849 4.14 4.14 0 001.854-.071 4.104 4.104 0 01-3.291-4.023v-.052a4.083 4.083 0 001.859.513 4.103 4.103 0 01-1.27-5.478 11.65 11.65 0 008.457 4.287 4.104 4.104 0 016.991-3.743 8.21 8.21 0 002.607-.994 4.123 4.123 0 01-1.804 2.27c.83-.1 1.62-.32 2.356-.647a8.352 8.352 0 01-2.047 2.124M20.5 0C9.454 0 .5 8.954.5 20c0 11.045 8.954 20 20 20s20-8.955 20-20c0-11.046-8.954-20-20-20" fill="#FFF" fill-rule="evenodd"/></svg>