<?xml version="1.0" encoding="UTF-8"?>
<svg width="41px" height="40px" viewBox="0 0 41 40" version="1.1" xmlns="http://www.w3.org/2000/svg" xmlns:xlink="http://www.w3.org/1999/xlink">
    <!-- Generator: Sketch 56.2 (81672) - https://sketch.com -->
    <title>Fill 183</title>
    <desc>Created with Sketch.</desc>
    <g id="Stage_01" stroke="none" stroke-width="1" fill="none" fill-rule="evenodd">
        <g id="standard-copy-3" transform="translate(-712.000000, -1362.000000)" fill="#FFFFFF">
            <path d="M737.69375,1375.32 L735.81125,1375.32125 C734.335,1375.32125 734.04875,1376.0225 734.04875,1377.05125 L734.04875,1379.32125 L737.57,1379.32125 L737.11125,1382.8775 L734.04875,1382.8775 L734.04875,1392 L730.3775,1392 L730.3775,1382.8775 L727.3075,1382.8775 L727.3075,1379.32125 L730.3775,1379.32125 L730.3775,1376.7 C730.3775,1373.65625 732.23625,1372 734.95,1372 C736.25,1372 737.3675,1372.09625 737.69375,1372.14 L737.69375,1375.32 Z M732.5,1362 C721.455,1362 712.5,1370.95375 712.5,1382 C712.5,1393.045 721.455,1402 732.5,1402 C743.54625,1402 752.5,1393.045 752.5,1382 C752.5,1370.95375 743.54625,1362 732.5,1362 L732.5,1362 Z" id="Fill-183"></path>
        </g>
    </g>
</svg>