<?xml version="1.0" encoding="UTF-8"?>
<svg width="41px" height="40px" viewBox="0 0 41 40" version="1.1" xmlns="http://www.w3.org/2000/svg" xmlns:xlink="http://www.w3.org/1999/xlink">
    <!-- Generator: Sketch 56.2 (81672) - https://sketch.com -->
    <title>Fill 209</title>
    <desc>Created with Sketch.</desc>
    <g id="Stage_01" stroke="none" stroke-width="1" fill="none" fill-rule="evenodd">
        <g id="standard-copy-3" transform="translate(-773.000000, -1362.000000)" fill="#FFFFFF">
            <path d="M803.499849,1391.98125 L799.356099,1391.98125 L799.356099,1385.49625 C799.356099,1383.95 799.328599,1381.96125 797.202349,1381.96125 C795.046099,1381.96125 794.717349,1383.64625 794.717349,1385.38625 L794.717349,1391.98125 L790.577349,1391.98125 L790.577349,1378.64625 L794.549849,1378.64625 L794.549849,1380.47 L794.607349,1380.47 C795.159849,1379.42125 796.512349,1378.315 798.528599,1378.315 C802.724849,1378.315 803.499849,1381.07625 803.499849,1384.6675 L803.499849,1391.98125 Z M785.904849,1376.825 C784.573599,1376.825 783.499849,1375.7475 783.499849,1374.42125 C783.499849,1373.095 784.573599,1372.0175 785.904849,1372.0175 C787.229849,1372.0175 788.306099,1373.095 788.306099,1374.42125 C788.306099,1375.7475 787.229849,1376.825 785.904849,1376.825 L785.904849,1376.825 Z M787.977349,1391.98125 L783.828599,1391.98125 L783.828599,1378.64625 L787.977349,1378.64625 L787.977349,1391.98125 Z M793.499849,1362 C782.453599,1362 773.499849,1370.95375 773.499849,1382 C773.499849,1393.045 782.453599,1402 793.499849,1402 C804.546099,1402 813.499849,1393.045 813.499849,1382 C813.499849,1370.95375 804.546099,1362 793.499849,1362 L793.499849,1362 Z" id="Fill-209"></path>
        </g>
    </g>
</svg>