<?xml version="1.0" encoding="UTF-8"?>
<svg width="41px" height="40px" viewBox="0 0 41 40" version="1.1" xmlns="http://www.w3.org/2000/svg" xmlns:xlink="http://www.w3.org/1999/xlink">
    <!-- Generator: Sketch 56.2 (81672) - https://sketch.com -->
    <title>Fill 184</title>
    <desc>Created with Sketch.</desc>
    <g id="Stage_01" stroke="none" stroke-width="1" fill="none" fill-rule="evenodd">
        <g id="standard-copy-3" transform="translate(-651.000000, -1362.000000)" fill="#FFFFFF">
            <path d="M679.452651,1377.92125 C679.460151,1378.0975 679.465151,1378.27375 679.465151,1378.4525 C679.465151,1383.87375 675.337651,1390.12625 667.790151,1390.12625 C665.472651,1390.12625 663.316401,1389.4475 661.500151,1388.28375 C661.821401,1388.32125 662.147651,1388.34 662.478901,1388.34 C664.401401,1388.34 666.170151,1387.685 667.575151,1386.58375 C665.778901,1386.55125 664.263901,1385.365 663.741401,1383.735 C663.992651,1383.7825 664.248901,1383.8075 664.513901,1383.8075 C664.887651,1383.8075 665.250151,1383.7575 665.595151,1383.66375 C663.717651,1383.2875 662.303901,1381.62875 662.303901,1379.64125 L662.303901,1379.58875 C662.856401,1379.89625 663.490151,1380.08125 664.162651,1380.1025 C663.061401,1379.36625 662.336401,1378.11 662.336401,1376.6875 C662.336401,1375.935 662.538901,1375.23 662.892651,1374.62375 C664.916401,1377.10625 667.940151,1378.74 671.350151,1378.91125 C671.280151,1378.61125 671.243901,1378.2975 671.243901,1377.97625 C671.243901,1375.71 673.081401,1373.8725 675.346401,1373.8725 C676.527651,1373.8725 677.593901,1374.37125 678.341401,1375.16875 C679.276401,1374.985 680.155151,1374.64375 680.947651,1374.17375 C680.641401,1375.13125 679.990151,1375.935 679.143901,1376.44375 C679.973901,1376.34375 680.763901,1376.12375 681.500151,1375.7975 C680.950151,1376.62 680.253901,1377.3425 679.452651,1377.92125 M671.500151,1362 C660.453901,1362 651.500151,1370.95375 651.500151,1382 C651.500151,1393.045 660.453901,1402 671.500151,1402 C682.546401,1402 691.500151,1393.045 691.500151,1382 C691.500151,1370.95375 682.546401,1362 671.500151,1362" id="Fill-184"></path>
        </g>
    </g>
</svg>